<svg xmlns="http://www.w3.org/2000/svg" viewBox="0 0 423 119" xml:space="preserve"><path fill="#FEFEFF" d="M309 120H1V1h423v119H309M136.186 30.548l-9.827 62.282h14.818c.944-5.797 2.013-11.504 2.748-17.253.347-2.709 1.43-3.615 4.149-3.642 4.972-.05 10.064.08 14.884-.927 10.86-2.268 19.386-13.654 18.684-24.067-.707-10.476-8.133-17.573-20.594-18.952-6.923-.005-13.848-.106-20.766.07-1.246.032-2.462 1.205-4.096 2.489m-54.372-.15C78.58 13.184 70.164 6.185 52.696 6.183c-9.488 0-18.979.109-28.464-.058-3.39-.06-5.02.79-5.584 4.51-3.914 25.79-8.018 51.552-12.2 77.3-.66 4.054.579 5.332 4.632 5.286a80.819 80.819 0 0 1 16.6 1.558c-.866 5.073-1.692 10.155-2.613 15.218-.606 3.33.317 5.056 4.07 4.883 4.32-.199 8.66-.155 12.984-.01 3.33.112 4.624-1.242 5.05-4.595.986-7.744 2.64-15.403 3.605-23.15.481-3.858 2.24-4.97 5.864-5.038 5.29-.097 10.811.155 15.805-1.259 12.228-3.463 19.858-11.796 21.915-24.511 1.802-11.133-2.99-19.33-12.546-25.92m204.24 61.153c3.721.54 7.439 1.112 11.167 1.608 2.702.36 3.806-.835 4.048-3.616.33-3.797 1.465-7.529 1.745-11.326.337-4.58 1.767-6.823 7.003-6.324 7.545.72 15.068.007 21.318-5.058 7.385-5.984 11.398-13.712 9.318-23.234-1.878-8.596-7.884-14.226-16.627-15.019-9.179-.832-18.491-.186-27.869-.186-3.382 20.912-6.727 41.592-10.103 63.155M181.65 83.68c6.03 9.802 16.369 13.021 27.152 8.532 1.226-.511 2.666-.953 3.943-.818 3.945.414 7.848 1.296 11.796 1.57.78.053 2.27-1.698 2.451-2.78 2.166-12.923 4.162-25.873 6.143-38.825.163-1.063.297-2.507-.26-3.234-1.756-2.294-12.792-.413-14.387 2.303-10.686-6.278-21.17-5.666-29.931 1.747-8.613 7.288-11.564 19.691-6.907 31.505m158.495-19.655c-.106.488-.205.977-.32 1.463-2.057 8.713-1.8 17.09 5.472 23.395 7.235 6.272 15.525 6.906 24.176 2.783.696-.331 2.04-.783 2.188-.567 2.87 4.204 7.079 1.243 10.554 2.042 3.232.743 4.34-1.15 4.762-4.06 1.19-8.218 2.564-16.41 3.807-24.622.831-5.485 1.562-10.985 2.45-17.267-5.71 1.131-11.178-2.426-15.288 2.927-16.327-8.133-30.171-3.277-37.801 13.906M266.88 58.36l-7.495 12.44c-2.21-7.138-4.108-13.488-6.184-19.779-.426-1.292-1.44-3.31-2.314-3.38-4.33-.35-8.703-.16-13.679-.16 4.04 12.486 7.864 23.794 11.253 35.23.643 2.168.205 5.176-.85 7.223-2.564 4.98-5.783 9.622-9.552 15.714 4.45.194 7.894.225 11.314.526 3.311.29 5.37-.724 7.2-3.812 9.98-16.858 20.263-33.537 30.413-50.296.721-1.19 1.216-2.517 1.85-3.853-11.385-2.977-15.227-1.473-20.624 7.771-.335.574-.66 1.153-1.332 2.376m151.604-26.205c.846-2.955-.018-4.46-3.339-4.235-2.32.158-4.672.187-6.986-.01-2.914-.247-4.022.844-4.46 3.805-2.114 14.3-4.492 28.56-6.753 42.839-.946 5.972-1.833 11.953-2.797 18.265h14.806c3.165-20.136 6.283-39.98 9.53-60.664z"/><path fill="#033088" d="M27.87 93.991c-5.597-.286-11.197-.834-16.79-.77-4.053.046-5.291-1.232-4.633-5.286 4.183-25.748 8.287-51.51 12.201-77.3.565-3.72 2.194-4.57 5.584-4.51 9.485.167 18.976.057 28.464.058 17.468.002 25.884 7.001 29.063 24.567-.054.353-.374.361-.733.227-3.018-.97-5.654-2.432-8.34-2.53a573.832 573.832 0 0 0-31.381-.269c-1.296.024-3.42 2.189-3.681 3.63-1.758 9.724-3.117 19.521-4.62 29.703a7300.51 7300.51 0 0 1-5.133 32.48z"/><path fill="#0270DF" d="M27.775 94.385c1.802-11.085 3.509-21.776 5.64-32.954 5.852-.743 11.298-1.417 16.703-1.176 17.618.786 31.556-14.272 31.267-29.144 0 0 .32-.008.478.027 9.507 5.848 14.299 14.046 12.497 25.179-2.057 12.715-9.687 21.048-21.915 24.511-4.994 1.414-10.516 1.162-15.805 1.26-3.624.066-5.383 1.179-5.864 5.038-.964 7.746-2.619 15.405-3.605 23.149-.426 3.353-1.72 4.707-5.05 4.595-4.324-.145-8.664-.189-12.984.01-3.753.173-4.676-1.553-4.07-4.883.92-5.063 1.747-10.145 2.708-15.612z"/><path fill="#0471E0" d="M286.07 91.108c3.36-21.121 6.705-41.801 10.087-62.713 9.378 0 18.69-.646 27.87.186 8.742.793 14.748 6.423 16.626 15.019 2.08 9.522-1.933 17.25-9.318 23.234-6.25 5.065-13.773 5.779-21.318 5.058-5.236-.5-6.666 1.743-7.003 6.324-.28 3.797-1.414 7.529-1.745 11.326-.242 2.781-1.346 3.976-4.048 3.616-3.728-.496-7.446-1.068-11.152-2.05m39.81-44.127c-2.565-7.236-8.807-4.993-13.943-5.154-1.166-.037-3.164 1.639-3.449 2.842-1.01 4.265-1.445 8.667-2.173 13.516 3.565 0 6.672.16 9.756-.033 6.728-.421 9.627-3.547 9.81-11.171z"/><path fill="#043188" d="M161.97 28.142c11.54 1.226 18.965 8.323 19.672 18.799.702 10.413-7.823 21.8-18.684 24.067-4.82 1.006-9.912.878-14.884.927-2.72.027-3.802.933-4.149 3.642-.735 5.75-1.804 11.456-2.748 17.253H126.36c3.32-21.046 6.574-41.664 10.459-62.702 4.41-.656 8.188-.886 11.966-1.128 4.396-.28 8.79-.571 13.186-.858m-14.046 23.19-.986 6.7c4.217 0 7.857.297 11.428-.071 4.904-.507 8.352-4.555 8.225-9.004-.134-4.71-2.884-7.045-8.76-7.282-2.761-.111-5.53-.019-8.437-.019-.517 3.302-.948 6.05-1.47 9.676z"/><path fill="#053188" d="M181.432 83.363c-4.438-11.498-1.487-23.901 7.126-31.189 8.761-7.413 19.245-8.025 29.931-1.747 1.595-2.716 12.63-4.597 14.387-2.303.557.727.423 2.17.26 3.234-1.98 12.952-3.977 25.902-6.143 38.824-.181 1.083-1.672 2.834-2.45 2.78-3.95-.273-7.852-1.155-11.797-1.57-1.277-.134-2.717.308-3.943.819-10.783 4.49-21.123 1.27-27.37-8.848m18.796-22.91c-1.741 1.493-3.843 2.724-5.156 4.529-3.99 5.487-2.092 13.123 3.627 15.627 4.629 2.026 10.684.651 14.036-3.188 3.504-4.014 4.197-9.36 1.726-13.327-2.719-4.367-7.374-5.729-14.233-3.642z"/><path fill="#0471E0" d="M340.305 63.655c7.47-16.814 21.315-21.67 37.642-13.537 4.11-5.353 9.578-1.796 15.288-2.927-.888 6.282-1.619 11.782-2.45 17.267-1.243 8.212-2.616 16.404-3.807 24.622-.422 2.91-1.53 4.803-4.762 4.06-3.475-.799-7.684 2.162-10.554-2.042-.147-.216-1.492.236-2.188.567-8.65 4.123-16.94 3.49-24.176-2.783-7.271-6.304-7.53-14.682-5.472-23.395.115-.486.214-.975.48-1.832m34.42 9.95c1.406-7.247-.405-11.586-5.67-13.586-5.592-2.125-12.418.578-15.175 6.009-2.605 5.13-1.439 10.758 2.844 13.72 4.867 3.366 11.771 2.12 16.013-2.937.63-.75 1.06-1.666 1.988-3.206z"/><path fill="#063289" d="M267.052 58.035c.5-.9.825-1.478 1.16-2.052 5.397-9.244 9.239-10.748 20.624-7.771-.634 1.336-1.129 2.663-1.85 3.853-10.15 16.759-20.432 33.438-30.414 50.296-1.828 3.088-3.888 4.103-7.2 3.812-3.42-.3-6.863-.332-11.313-.526 3.769-6.092 6.988-10.734 9.553-15.714 1.054-2.047 1.492-5.055.85-7.223-3.39-11.436-7.214-22.744-11.254-35.23 4.976 0 9.35-.19 13.679.16.873.07 1.888 2.088 2.314 3.38 2.076 6.291 3.973 12.64 6.184 19.778 2.747-4.56 5.121-8.5 7.667-12.763z"/><path fill="#0471E0" d="M418.42 32.575c-3.182 20.264-6.3 40.107-9.465 60.243h-14.806c.964-6.312 1.851-12.293 2.797-18.265 2.26-14.279 4.64-28.54 6.753-42.84.438-2.96 1.546-4.051 4.46-3.803 2.314.196 4.666.167 6.986.01 3.32-.226 4.185 1.279 3.276 4.655z"/><path fill="#001B80" d="M161.509 28.066c-3.934.363-8.33.653-12.725.934-3.778.242-7.556.472-11.764.809.8-.545 2.016-1.718 3.262-1.75 6.918-.176 13.843-.075 21.227.007z"/><path fill="#001C64" d="M81.026 30.977c.648 15.006-13.29 30.064-30.908 29.278-5.405-.241-10.851.433-16.689.768 1.078-9.694 2.437-19.49 4.195-29.216.26-1.44 2.385-3.605 3.68-3.629a573.832 573.832 0 0 1 31.383.269c2.685.098 5.321 1.56 8.339 2.53z"/><path fill="#FBFCFE" d="M325.926 47.38c-.229 7.225-3.128 10.35-9.856 10.772-3.084.193-6.19.033-9.756.033.728-4.85 1.163-9.25 2.173-13.516.285-1.203 2.283-2.879 3.449-2.842 5.136.16 11.378-2.082 13.99 5.553z"/><path fill="#FAFAFC" d="M147.97 50.894c.476-3.187.907-5.936 1.424-9.238 2.907 0 5.676-.092 8.437.02 5.876.236 8.626 2.572 8.76 7.28.127 4.45-3.32 8.498-8.225 9.005-3.57.368-7.21.072-11.428.072.34-2.307.663-4.504 1.032-7.14z"/><path fill="#F9FAFC" d="M200.583 60.295c6.505-1.93 11.16-.568 13.88 3.799 2.47 3.968 1.777 9.313-1.727 13.327-3.352 3.839-9.407 5.214-14.036 3.188-5.72-2.504-7.617-10.14-3.627-15.627 1.313-1.805 3.415-3.036 5.51-4.687z"/><path fill="#F9FBFE" d="M374.523 73.955c-.725 1.19-1.156 2.106-1.785 2.856-4.242 5.057-11.146 6.303-16.013 2.937-4.283-2.962-5.45-8.59-2.844-13.72 2.757-5.43 9.583-8.134 15.175-6.01 5.265 2.001 7.076 6.34 5.467 13.937z"/></svg>