<svg xmlns="http://www.w3.org/2000/svg" viewBox="0 0 422 119" xml:space="preserve"><path fill="#FDFDFD" d="M371 120H1c0-4.395 0-8.723.428-13.588 19.664 2.718 38.885 6.06 58.143 9.171 5.417.875 10.944 1.077 16.827 1.553 9.7-2.288 18.994-4.54 28.503-6.845L91.95 23.443c-7.684 2.138-11.785-2.543-16.007-7.028-.537-.57-1.311-.917-2.343-1.493-1.964.03-3.56.186-5.177.345-2.135-4.606-4.25-8.957-9.725-10.497C55.993 4.01 53.558 2.287 51 1h371.85v119c-16.272 0-32.593 0-49.271-.34 9.547-3.602 16.425-10.711 21.133-19.41 8.259-15.258 15.62-31.002 23.339-46.55 1.035-2.086 1.962-4.224 3.108-6.703-3.312 0-5.868.35-8.288-.073-5.06-.883-7.266 1.343-8.817 5.977-3.119 9.315-6.835 18.43-10.716 28.718l-3.603-34.41h-14.72c2.703 14.791 5.49 29.414 7.933 44.093.357 2.143-.187 5.29-1.59 6.71-4 4.044-8.659 7.436-13.359 11.334L371 120m-82.788-71.531-6.331 5.16v-6.556h-11.514l-13.017 69.955h13.838l4.047-20.541c11.151 3.623 20.117.946 27.374-7.427 6.764-7.805 9.236-17.106 8.66-27.258-.759-13.35-10.08-19.013-23.057-13.333M162.407 81.935l-2.746 14.826h14.062c1.53-8.267 2.824-16.29 4.547-24.219 1.205-5.544 3-11.013 8.262-14.238 4.009-2.458 7.318-.653 7.42 4.026a38.154 38.154 0 0 1-.593 7.428c-1.59 8.984-3.32 17.942-5.037 27.125h13.954c.426-2.133.87-4.215 1.255-6.308 1.745-9.466 3.61-18.913 5.155-28.412.886-5.448.384-10.901-4.73-14.254-5.316-3.487-10.835-2.235-16 .76-1.978 1.148-3.725 2.694-5.912 4.305l5.25-27.781h-14.041c-1.794 9.496-3.549 18.78-5.3 28.066-1.752 9.289-3.501 18.578-5.546 28.676m80.753-35.934c-17.68-.05-30.177 13.058-30.266 31.75-.07 14.75 10.793 23.273 25.182 19.756 12.902-3.152 21.297-14.705 22.178-29.62.582-9.852-3.548-19.91-17.094-21.886M369.329 35.69h6.512l2.45-10.245c-14.634-5.223-24.176 1.595-30.354 21.397l-6.223.3-1.953 10.204 6.413.315-7.345 39.196h13.99l7.543-39.312h9.643l2.115-10.633h-9.868c.91-4.686 1.67-8.968 7.077-11.222M141.795 84.12c-5.373 7.547-11.577 1.835-17.86 1.094l-3.307 9.445c9.654 4.56 19.141 5.08 28.248-.276 9.558-5.622 10.067-17.722 1.391-24.603-1.68-1.333-3.912-2.077-5.33-3.61-1.623-1.756-2.621-4.09-3.891-6.172 2.325-1.224 4.556-3.16 7-3.48 2.613-.343 5.426.836 8.403 1.397l2.908-9.3c-7.86-3.87-18.18-3.366-25.16 1.096-5.558 3.554-8.129 8.665-7.245 15.226.74 5.491 5.026 8.166 9.059 11.216 2.41 1.823 3.973 4.767 5.784 7.967m187.918-4.954 6.077-32.169c-3.69 0-6.868.216-10.003-.058-3.384-.296-4.402.967-4.988 4.314-2.662 15.19-5.726 30.31-8.68 45.64h14.035c1.083-5.609 2.176-11.266 3.559-17.727m5.871-39.92c1.026-2.913 2.818-5.838 2.77-8.732-.027-1.558-2.98-3.788-5.017-4.43-3.429-1.082-7.08.234-8.208 3.722-.852 2.635-.862 6.453.499 8.677 2.036 3.329 5.926 2.967 9.956.763z"/><path fill="#95BF48" d="M50.572 1c2.985 1.287 5.42 3.01 8.126 3.77 5.476 1.54 7.59 5.891 9.725 10.497 1.617-.159 3.213-.315 5.165.12.353 32.525.317 64.46.434 96.393.007 1.8 1.284 3.594 1.969 5.391-5.476-.51-11.003-.713-16.42-1.588-19.258-3.112-38.48-6.453-58.143-9.645C1 104.611 1 103.222 1.32 101.18c2.817-19.92 5.665-39.15 7.628-58.47.742-7.307 3.566-11.123 10.734-11.928 3.947-.443 5.487-2.797 6.652-6.681C29.36 14.018 34.357 5.117 45 1h5.572M32.69 85.788l-10.15-3.792c-.557 2.588-1.286 5.108-1.569 7.676-.123 1.118.302 2.815 1.105 3.433 7.02 5.406 20.574 7.772 28-1.43 6.494-8.044 4.82-20.09-3.882-26.471-2.544-1.866-5.51-3.261-7.712-5.446-1.146-1.138-1.697-3.688-1.296-5.296.284-1.14 2.53-2.295 4.041-2.526 3.638-.556 7.358-.572 11.497-.835l3.412-12.647c-9.932-2.285-18.646-1.08-25.842 5.859-9.098 8.771-8.104 21.253 1.98 28.792 1.334.997 2.733 1.939 3.92 3.093 4.175 4.06 3.035 8.007-3.504 9.59m-.732-66.273-2.778 7.613 1.071 1.085c3.124-1.775 8.006-2.86 9.026-5.46 2.579-6.571 5.433-12.625 11.385-17.326-5.384-1.443-9.058.684-11.95 4.029-2.47 2.856-4.352 6.22-6.754 10.06m23.122-3.961-1.376-7.172c-5.954 3.66-8.614 8.337-10.07 14.874 3.442-.982 6.278-1.393 8.686-2.635 1.316-.679 1.906-2.764 2.76-5.067m7.835-2.967L57.885 7.7l1.522 10.636 5.358-1.555c-.62-1.425-1.079-2.48-1.849-4.193z"/><path fill="#030303" d="M371.333 120c-1.401-3.792-2.47-7.585-3.334-10.654 4.7-3.898 9.36-7.29 13.358-11.334 1.404-1.42 1.948-4.567 1.591-6.71-2.443-14.68-5.23-29.302-7.934-44.094h14.721l3.603 34.411c3.881-10.287 7.597-19.403 10.716-28.718 1.55-4.634 3.756-6.86 8.817-5.977 2.42.423 4.976.073 8.288.073-1.146 2.479-2.073 4.617-3.108 6.702-7.719 15.55-15.08 31.293-23.339 46.55-4.708 8.7-11.586 15.809-21.602 19.411-.554.34-.999.34-1.777.34z"/><path fill="#FEFEFD" d="M44.531 1C34.357 5.117 29.36 14.018 26.334 24.1c-1.165 3.885-2.705 6.24-6.652 6.682-7.168.805-9.992 4.621-10.734 11.927-1.963 19.32-4.811 38.55-7.628 58.054C1 67.768 1 34.536 1 1h43.531z"/><path fill="#5F8E3F" d="M76.398 117.136c-1.092-1.762-2.369-3.557-2.376-5.356-.117-31.934-.08-63.868-.066-96.267.676-.015 1.45.332 1.987.902 4.222 4.485 8.323 9.166 16.007 7.028l12.95 86.848c-9.508 2.305-18.801 4.557-28.502 6.845z"/><path fill="#030303" d="M288.543 48.274c12.645-5.485 21.967.178 22.726 13.528.576 10.152-1.896 19.453-8.66 27.258-7.257 8.373-16.223 11.05-27.374 7.427l-4.047 20.54H257.35l13.017-69.954h11.514v6.557c2.318-1.89 4.324-3.526 6.662-5.356m-8.785 24.032-2.418 13.005c4.952 3.152 8.05 3.419 11.462.094 6.195-6.036 8.638-13.795 7.806-22.227-.577-5.841-6.655-7.809-10.58-3.308-2.794 3.204-4.089 7.715-6.27 12.436zM162.554 81.53c1.898-9.693 3.647-18.982 5.399-28.27 1.751-9.286 3.506-18.57 5.3-28.067h14.041l-5.25 27.78c2.187-1.61 3.934-3.156 5.913-4.303 5.164-2.996 10.683-4.248 16-.761 5.113 3.353 5.615 8.806 4.73 14.254-1.546 9.5-3.411 18.946-5.156 28.412-.386 2.093-.829 4.175-1.255 6.308h-13.954c1.718-9.183 3.448-18.141 5.037-27.125.431-2.437.646-4.955.592-7.428-.101-4.68-3.41-6.484-7.419-4.026-5.262 3.225-7.057 8.694-8.262 14.238-1.723 7.93-3.017 15.952-4.547 24.219h-14.062c.937-5.063 1.841-9.944 2.893-15.23zM243.591 46.024c13.115 1.954 17.245 12.011 16.663 21.863-.881 14.915-9.276 26.468-22.178 29.62-14.39 3.517-25.252-5.006-25.182-19.757.089-18.69 12.585-31.8 30.697-31.726m-9.783 13.097c-4.688 5.385-6.454 11.852-6.668 18.783-.122 3.955.63 7.853 5.122 9.163 4.755 1.387 8.026-1.513 9.425-5.343 2.007-5.497 3.721-11.342 4.096-17.134.466-7.188-4.867-9.647-11.975-5.469zM368.973 35.83c-5.051 2.114-5.812 6.396-6.72 11.082h9.867l-2.115 10.633h-9.643l-7.543 39.312h-13.99c2.445-13.045 4.862-25.94 7.345-39.196l-6.413-.315 1.953-10.204 6.223-.3c6.178-19.802 15.72-26.62 30.354-21.397l-2.45 10.245c-2.321 0-4.417 0-6.868.14zM141.86 83.74c-1.876-2.82-3.439-5.764-5.849-7.587-4.033-3.05-8.32-5.725-9.06-11.216-.883-6.561 1.688-11.672 7.247-15.226 6.98-4.462 17.3-4.967 25.159-1.095l-2.908 9.3c-2.977-.562-5.79-1.741-8.403-1.398-2.444.32-4.675 2.256-7 3.48 1.27 2.083 2.268 4.416 3.892 6.172 1.417 1.533 3.648 2.277 5.33 3.61 8.675 6.88 8.166 18.981-1.392 24.603-9.107 5.356-18.594 4.835-28.248.276l3.308-9.445c6.282.741 12.486 6.453 17.925-1.474zM329.568 79.568c-1.238 6.059-2.33 11.716-3.414 17.325h-14.036c2.955-15.33 6.019-30.45 8.68-45.64.587-3.347 1.605-4.61 4.989-4.314 3.135.274 6.313.058 10.003.058-2.06 10.902-4.068 21.535-6.222 32.57z"/><path fill="#050505" d="M335.29 39.495c-3.736 1.955-7.626 2.317-9.662-1.012-1.36-2.224-1.351-6.042-.5-8.677 1.128-3.488 4.78-4.804 8.21-3.722 2.036.642 4.989 2.872 5.015 4.43.049 2.894-1.743 5.82-3.063 8.981z"/><path fill="#FCFDFB" d="M33.077 85.837c6.153-1.632 7.293-5.578 3.118-9.64-1.187-1.153-2.586-2.095-3.92-3.092-10.084-7.54-11.078-20.02-1.98-28.792 7.196-6.939 15.91-8.144 25.842-5.86l-3.412 12.648c-4.139.263-7.86.28-11.497.835-1.51.23-3.757 1.386-4.041 2.526-.4 1.608.15 4.158 1.296 5.296 2.202 2.185 5.168 3.58 7.712 5.446 8.702 6.381 10.376 18.427 3.883 26.472-7.427 9.201-20.981 6.835-28 1.43-.804-.62-1.229-2.316-1.106-3.434.283-2.568 1.012-5.088 1.57-7.676 3.719 1.39 6.934 2.591 10.535 3.84z"/><path fill="#FAFCF8" d="M32.089 19.166c2.272-3.49 4.155-6.854 6.625-9.71 2.891-3.345 6.565-5.472 11.95-4.03-5.953 4.702-8.807 10.756-11.386 17.328-1.02 2.6-5.902 3.684-9.026 5.459l-1.071-1.085c.926-2.538 1.852-5.075 2.908-7.962zM55.113 15.981c-.886 1.877-1.476 3.962-2.792 4.641-2.408 1.242-5.244 1.653-8.687 2.635 1.457-6.537 4.117-11.214 10.071-14.874.544 2.834.96 5.003 1.408 7.598z"/><path fill="#FCFCFB" d="M63.072 12.918a534.574 534.574 0 0 1 1.693 3.863l-5.358 1.555L57.885 7.7c2.39 2.323 3.71 3.605 5.187 5.218z"/><path fill="#F8F8F8" d="M279.866 71.91c2.073-4.325 3.368-8.836 6.162-12.04 3.925-4.5 10.003-2.533 10.58 3.308.832 8.432-1.61 16.19-7.806 22.227-3.412 3.325-6.51 3.058-11.462-.094.793-4.262 1.605-8.634 2.526-13.401z"/><path fill="#F9F9F9" d="M234.107 58.876c6.809-3.933 12.142-1.474 11.676 5.714-.375 5.792-2.089 11.637-4.096 17.134-1.399 3.83-4.67 6.73-9.425 5.343-4.492-1.31-5.244-5.208-5.122-9.163.214-6.931 1.98-13.398 6.967-19.028z"/></svg>