<svg version="1.1" id="Layer_1" xmlns="http://www.w3.org/2000/svg" xmlns:xlink="http://www.w3.org/1999/xlink" x="0px" y="0px"
	 width="100%" viewBox="0 0 422 119" enable-background="new 0 0 422 119" xml:space="preserve">
<path fill="#FDFDFD" opacity="1.000000" stroke="none" 
	d="
M371.000000,120.000000 
	C247.666656,120.000000 124.333328,120.000000 1.000000,120.000000 
	C1.000000,115.604744 1.000000,111.276505 1.428307,106.412086 
	C21.091768,109.130157 40.312881,112.471268 59.571064,115.583008 
	C64.988472,116.458351 70.514671,116.660431 76.398300,117.135895 
	C86.098610,114.848190 95.391586,112.595909 104.900894,110.291206 
	C100.564629,81.212692 96.302078,52.628593 91.949844,23.443003 
	C84.265503,25.581053 80.165413,20.899593 75.942856,16.415024 
	C75.405861,15.844715 74.631607,15.497817 73.599533,14.921621 
	C71.636108,14.952163 70.040421,15.108497 68.423119,15.266948 
	C66.288406,10.661077 64.173943,6.310268 58.698090,4.770445 
	C55.992580,4.009648 53.557461,2.287286 51.000000,1.000000 
	C174.899689,1.000000 298.799377,1.000000 422.849548,1.000000 
	C422.849548,40.666275 422.849548,80.333054 422.849548,120.000000 
	C406.577515,120.000000 390.257416,120.000000 373.578735,119.660431 
	C383.125641,116.057930 390.003906,108.948715 394.712494,100.249397 
	C402.970825,84.991844 410.332062,69.248421 418.050537,53.699329 
	C419.085602,51.614143 420.012970,49.475521 421.158813,46.996941 
	C417.846924,46.996941 415.291473,47.346863 412.870880,46.924198 
	C407.810486,46.040592 405.604919,48.266659 404.053680,52.900887 
	C400.935394,62.216461 397.218994,71.331818 393.338409,81.619492 
	C392.055725,69.369125 390.905365,58.382751 389.735321,47.208157 
	C384.784241,47.208157 380.015167,47.208157 375.014160,47.208157 
	C377.718109,62.000210 380.505188,76.622612 382.948456,91.302246 
	C383.305145,93.445366 382.761383,96.592484 381.357361,98.012306 
	C377.358185,102.056435 372.699463,105.448326 367.999420,109.346420 
	C368.863678,112.415024 369.931854,116.207512 371.000000,120.000000 
M288.211761,48.468678 
	C286.205353,50.104210 284.198975,51.739742 281.880676,53.629520 
	C281.880676,51.245098 281.880676,49.203808 281.880676,47.072598 
	C277.853973,47.072598 274.072113,47.072598 270.367401,47.072598 
	C266.017426,70.448669 261.702576,93.636024 257.349731,117.027695 
	C262.180634,117.027695 266.481262,117.027695 271.188293,117.027695 
	C272.548065,110.125320 273.897339,103.276215 275.234833,96.486847 
	C286.386017,100.109528 295.352448,97.433098 302.608582,89.060410 
	C309.373444,81.254593 311.845490,71.954323 311.268738,61.801796 
	C310.510345,48.451504 301.188141,42.788536 288.211761,48.468678 
M162.406555,81.935493 
	C161.502472,86.816963 160.598389,91.698441 159.660828,96.760696 
	C164.533493,96.760696 169.113235,96.760696 173.723404,96.760696 
	C175.252991,88.494438 176.546570,80.471680 178.269989,72.542351 
	C179.474930,66.998451 181.270325,61.529305 186.532196,58.303654 
	C190.540955,55.846191 193.849579,57.650761 193.951324,62.330078 
	C194.005096,64.802963 193.790085,67.320503 193.358841,69.758171 
	C191.769714,78.741501 190.039581,87.699890 188.322205,96.883003 
	C193.023666,96.883003 197.476242,96.883003 202.276337,96.883003 
	C202.702179,94.750435 203.145432,92.668167 203.531204,90.575294 
	C205.276016,81.109192 207.141464,71.662338 208.686172,62.163464 
	C209.572250,56.714710 209.069565,51.261627 203.956650,47.908596 
	C198.639771,44.421799 193.121368,45.674133 187.956696,48.669731 
	C185.978195,49.817295 184.230728,51.363152 182.043503,52.973816 
	C183.822540,43.561127 185.534332,34.504181 187.294266,25.192604 
	C182.374710,25.192604 177.771408,25.192604 173.252548,25.192604 
	C171.459198,34.689293 169.704407,43.973900 167.952881,53.259129 
	C166.200729,62.547657 164.451843,71.836800 162.406555,81.935493 
M243.159897,46.001350 
	C225.479187,45.950493 212.982620,59.059490 212.894043,77.750496 
	C212.824142,92.501076 223.686813,101.023636 238.075851,97.507469 
	C250.978195,94.354607 259.372681,82.801872 260.253601,67.887077 
	C260.835541,58.035049 256.706329,47.977539 243.159897,46.001350 
M369.328857,35.690018 
	C371.424286,35.690018 373.519714,35.690018 375.841400,35.690018 
	C376.643250,32.335995 377.473053,28.865110 378.290649,25.445290 
	C363.656708,20.221657 354.114899,27.040096 347.936707,46.841705 
	C346.037018,46.933502 344.071259,47.028496 341.713654,47.142426 
	C341.072845,50.491108 340.439087,53.802937 339.760986,57.346436 
	C342.125275,57.462360 343.893707,57.549068 346.174438,57.660892 
	C343.690552,70.916138 341.273987,83.812149 338.829498,96.857239 
	C343.875061,96.857239 348.324402,96.857239 352.819061,96.857239 
	C355.346039,83.686928 357.837250,70.702995 360.361786,57.545483 
	C363.698486,57.545483 366.671417,57.545483 370.005402,57.545483 
	C370.703064,54.037872 371.366058,50.704506 372.120300,46.912399 
	C368.593506,46.912399 365.507111,46.912399 362.252167,46.912399 
	C363.161346,42.226089 363.921875,37.944252 369.328857,35.690018 
M141.794662,84.120186 
	C136.422073,91.666985 130.217819,85.954956 123.935890,85.214005 
	C122.899323,88.173431 121.820213,91.254333 120.627663,94.659096 
	C130.281525,99.218369 139.769135,99.739090 148.875885,94.382881 
	C158.434189,88.761078 158.943375,76.660843 150.267319,69.779877 
	C148.586395,68.446732 146.354996,67.703133 144.937592,66.169838 
	C143.314362,64.413879 142.315750,62.080502 141.045761,59.997990 
	C143.370682,58.773590 145.602341,56.838924 148.045898,56.518085 
	C150.658981,56.174984 153.471848,57.353554 156.449387,57.915466 
	C157.451843,54.708996 158.414810,51.628860 159.356888,48.615555 
	C151.497787,44.744431 141.177246,45.248581 134.197571,49.711235 
	C128.639053,53.265240 126.068153,58.375908 126.951736,64.937157 
	C127.691200,70.428230 131.977814,73.103355 136.011002,76.153343 
	C138.421341,77.976105 139.983566,80.920364 141.794662,84.120186 
M329.712830,79.165817 
	C331.721863,68.532234 333.730865,57.898659 335.790497,46.997189 
	C332.100067,46.997189 328.921967,47.212845 325.786652,46.938759 
	C322.402985,46.642956 321.385437,47.905895 320.798828,51.253201 
	C318.136841,66.443497 315.072968,81.563370 312.118164,96.892975 
	C316.705658,96.892975 321.171906,96.892975 326.153961,96.892975 
	C327.237183,91.284332 328.329803,85.627045 329.712830,79.165817 
M335.584167,39.245705 
	C336.609802,36.333393 338.401794,33.408195 338.353149,30.513939 
	C338.326935,28.955662 335.374481,26.726202 333.337311,26.083588 
	C329.908447,25.001982 326.256165,26.318203 325.128601,29.806150 
	C324.276917,32.440697 324.267395,36.259193 325.627991,38.483311 
	C327.664154,41.811779 331.554077,41.449734 335.584167,39.245705 
z"/>
<path fill="#95BF48" opacity="1.000000" stroke="none" 
	d="
M50.571537,1.000000 
	C53.557461,2.287286 55.992580,4.009648 58.698090,4.770445 
	C64.173943,6.310268 66.288406,10.661077 68.423119,15.266948 
	C70.040421,15.108497 71.636108,14.952163 73.588112,15.386980 
	C73.941154,47.912170 73.904579,79.846336 74.022392,111.779930 
	C74.029030,113.579460 75.305511,115.374298 75.990967,117.171326 
	C70.514671,116.660431 64.988472,116.458351 59.571064,115.583008 
	C40.312881,112.471268 21.091768,109.130157 1.428307,105.937958 
	C1.000000,104.611107 1.000000,103.222221 1.320339,101.179520 
	C4.136593,81.259666 6.985350,62.029457 8.947591,42.709209 
	C9.689611,35.403275 12.514359,31.586880 19.682463,30.782299 
	C23.628744,30.339352 25.168619,27.984671 26.334177,24.100559 
	C29.359835,14.017854 34.356834,5.116673 45.000000,1.000000 
	C46.714359,1.000000 48.428715,1.000000 50.571537,1.000000 
M32.690754,85.788452 
	C29.475775,84.586952 26.260796,83.385460 22.541803,81.995605 
	C21.983601,84.583977 21.254915,87.103523 20.972261,89.672150 
	C20.849289,90.789635 21.273867,92.486656 22.077394,93.105431 
	C29.096794,98.510857 42.650688,100.877373 50.077679,91.675919 
	C56.570835,83.631393 54.897041,71.584976 46.195156,65.203560 
	C43.650967,63.337814 40.685303,61.942921 38.482910,59.757652 
	C37.336773,58.620430 36.786163,56.070324 37.186722,54.462399 
	C37.470806,53.322041 39.717312,52.166782 41.228073,51.936028 
	C44.865871,51.380390 48.586021,51.363960 52.725025,51.101357 
	C53.719479,47.415249 54.871124,43.146469 56.137207,38.453526 
	C46.204693,36.168617 37.491188,37.374184 30.295023,44.312519 
	C21.197252,53.084335 22.191071,65.565857 32.275356,73.105331 
	C33.608677,74.102180 35.007900,75.043671 36.194603,76.197906 
	C40.369648,80.258736 39.230099,84.204742 32.690754,85.788452 
M31.958788,19.515474 
	C31.032742,22.052935 30.106693,24.590395 29.180647,27.127855 
	C29.537827,27.489462 29.895008,27.851067 30.252188,28.212673 
	C33.375732,26.438160 38.257549,25.353596 39.277744,22.753723 
	C41.856503,16.181992 44.710884,10.128074 50.663353,5.426633 
	C45.279354,3.984430 41.605312,6.111340 38.713860,9.455613 
	C36.243950,12.312328 34.360931,15.676470 31.958788,19.515474 
M55.080864,15.554849 
	C54.664936,13.386004 54.249008,11.217161 53.705467,8.382875 
	C47.751022,12.042816 45.090561,16.720171 43.634186,23.256655 
	C47.076939,22.275177 49.913303,21.864065 52.320992,20.621994 
	C53.636726,19.943235 54.227062,17.858330 55.080864,15.554849 
M62.916130,12.587784 
	C61.595753,11.305219 60.275379,10.022655 57.884758,7.700493 
	C58.526424,12.182410 58.935890,15.042459 59.407360,18.335583 
	C61.285034,17.790894 62.941601,17.310347 64.765175,16.781353 
	C64.144669,15.355586 63.686069,14.301861 62.916130,12.587784 
z"/>
<path fill="#030303" opacity="1.000000" stroke="none" 
	d="
M371.333313,120.000000 
	C369.931854,116.207512 368.863678,112.415024 367.999420,109.346420 
	C372.699463,105.448326 377.358185,102.056435 381.357361,98.012306 
	C382.761383,96.592484 383.305145,93.445366 382.948456,91.302246 
	C380.505188,76.622612 377.718109,62.000210 375.014160,47.208157 
	C380.015167,47.208157 384.784241,47.208157 389.735321,47.208157 
	C390.905365,58.382751 392.055725,69.369125 393.338409,81.619492 
	C397.218994,71.331818 400.935394,62.216461 404.053680,52.900887 
	C405.604919,48.266659 407.810486,46.040592 412.870880,46.924198 
	C415.291473,47.346863 417.846924,46.996941 421.158813,46.996941 
	C420.012970,49.475521 419.085602,51.614143 418.050537,53.699329 
	C410.332062,69.248421 402.970825,84.991844 394.712494,100.249397 
	C390.003906,108.948715 383.125641,116.057930 373.110046,119.660431 
	C372.555542,120.000000 372.111115,120.000000 371.333313,120.000000 
z"/>
<path fill="#FEFEFD" opacity="1.000000" stroke="none" 
	d="
M44.531342,1.000000 
	C34.356834,5.116673 29.359835,14.017854 26.334177,24.100559 
	C25.168619,27.984671 23.628744,30.339352 19.682463,30.782299 
	C12.514359,31.586880 9.689611,35.403275 8.947591,42.709209 
	C6.985350,62.029457 4.136593,81.259666 1.320339,100.762856 
	C1.000000,67.768242 1.000000,34.536488 1.000000,1.000000 
	C15.352790,1.000000 29.707737,1.000000 44.531342,1.000000 
z"/>
<path fill="#5F8E3F" opacity="1.000000" stroke="none" 
	d="
M76.398300,117.135895 
	C75.305511,115.374298 74.029030,113.579460 74.022392,111.779930 
	C73.904579,79.846336 73.941154,47.912170 73.955849,15.512774 
	C74.631607,15.497817 75.405861,15.844715 75.942856,16.415024 
	C80.165413,20.899593 84.265503,25.581053 91.949844,23.443003 
	C96.302078,52.628593 100.564629,81.212692 104.900894,110.291206 
	C95.391586,112.595909 86.098610,114.848190 76.398300,117.135895 
z"/>
<path fill="#030303" opacity="1.000000" stroke="none" 
	d="
M288.543121,48.274258 
	C301.188141,42.788536 310.510345,48.451504 311.268738,61.801796 
	C311.845490,71.954323 309.373444,81.254593 302.608582,89.060410 
	C295.352448,97.433098 286.386017,100.109528 275.234833,96.486847 
	C273.897339,103.276215 272.548065,110.125320 271.188293,117.027695 
	C266.481262,117.027695 262.180634,117.027695 257.349731,117.027695 
	C261.702576,93.636024 266.017426,70.448669 270.367401,47.072598 
	C274.072113,47.072598 277.853973,47.072598 281.880676,47.072598 
	C281.880676,49.203808 281.880676,51.245098 281.880676,53.629520 
	C284.198975,51.739742 286.205353,50.104210 288.543121,48.274258 
M279.757568,72.306076 
	C278.945099,76.677399 278.132599,81.048721 277.340424,85.310722 
	C282.291595,88.462753 285.389862,88.729836 288.801758,85.405365 
	C294.997253,79.368576 297.440460,71.609634 296.608032,63.177876 
	C296.031372,57.336830 289.952789,55.369350 286.027679,59.870274 
	C283.233704,63.074104 281.939026,67.585419 279.757568,72.306076 
z"/>
<path fill="#030303" opacity="1.000000" stroke="none" 
	d="
M162.554047,81.530586 
	C164.451843,71.836800 166.200729,62.547657 167.952881,53.259129 
	C169.704407,43.973900 171.459198,34.689293 173.252548,25.192604 
	C177.771408,25.192604 182.374710,25.192604 187.294266,25.192604 
	C185.534332,34.504181 183.822540,43.561127 182.043503,52.973816 
	C184.230728,51.363152 185.978195,49.817295 187.956696,48.669731 
	C193.121368,45.674133 198.639771,44.421799 203.956650,47.908596 
	C209.069565,51.261627 209.572250,56.714710 208.686172,62.163464 
	C207.141464,71.662338 205.276016,81.109192 203.531204,90.575294 
	C203.145432,92.668167 202.702179,94.750435 202.276337,96.883003 
	C197.476242,96.883003 193.023666,96.883003 188.322205,96.883003 
	C190.039581,87.699890 191.769714,78.741501 193.358841,69.758171 
	C193.790085,67.320503 194.005096,64.802963 193.951324,62.330078 
	C193.849579,57.650761 190.540955,55.846191 186.532196,58.303654 
	C181.270325,61.529305 179.474930,66.998451 178.269989,72.542351 
	C176.546570,80.471680 175.252991,88.494438 173.723404,96.760696 
	C169.113235,96.760696 164.533493,96.760696 159.660828,96.760696 
	C160.598389,91.698441 161.502472,86.816963 162.554047,81.530586 
z"/>
<path fill="#030303" opacity="1.000000" stroke="none" 
	d="
M243.591064,46.023643 
	C256.706329,47.977539 260.835541,58.035049 260.253601,67.887077 
	C259.372681,82.801872 250.978195,94.354607 238.075851,97.507469 
	C223.686813,101.023636 212.824142,92.501076 212.894043,77.750496 
	C212.982620,59.059490 225.479187,45.950493 243.591064,46.023643 
M233.808289,59.120964 
	C229.120026,64.505814 227.354340,70.972679 227.140488,77.904488 
	C227.018494,81.859482 227.769714,85.757378 232.261948,87.067192 
	C237.017136,88.453659 240.288483,85.553741 241.686752,81.724213 
	C243.694000,76.226898 245.408127,70.381897 245.783356,64.590469 
	C246.249069,57.402454 240.915695,54.943363 233.808289,59.120964 
z"/>
<path fill="#030303" opacity="1.000000" stroke="none" 
	d="
M368.973053,35.829216 
	C363.921875,37.944252 363.161346,42.226089 362.252167,46.912399 
	C365.507111,46.912399 368.593506,46.912399 372.120300,46.912399 
	C371.366058,50.704506 370.703064,54.037872 370.005402,57.545483 
	C366.671417,57.545483 363.698486,57.545483 360.361786,57.545483 
	C357.837250,70.702995 355.346039,83.686928 352.819061,96.857239 
	C348.324402,96.857239 343.875061,96.857239 338.829498,96.857239 
	C341.273987,83.812149 343.690552,70.916138 346.174438,57.660892 
	C343.893707,57.549068 342.125275,57.462360 339.760986,57.346436 
	C340.439087,53.802937 341.072845,50.491108 341.713654,47.142426 
	C344.071259,47.028496 346.037018,46.933502 347.936707,46.841705 
	C354.114899,27.040096 363.656708,20.221657 378.290649,25.445290 
	C377.473053,28.865110 376.643250,32.335995 375.841400,35.690018 
	C373.519714,35.690018 371.424286,35.690018 368.973053,35.829216 
z"/>
<path fill="#030303" opacity="1.000000" stroke="none" 
	d="
M141.860840,83.740341 
	C139.983566,80.920364 138.421341,77.976105 136.011002,76.153343 
	C131.977814,73.103355 127.691200,70.428230 126.951736,64.937157 
	C126.068153,58.375908 128.639053,53.265240 134.197571,49.711235 
	C141.177246,45.248581 151.497787,44.744431 159.356888,48.615555 
	C158.414810,51.628860 157.451843,54.708996 156.449387,57.915466 
	C153.471848,57.353554 150.658981,56.174984 148.045898,56.518085 
	C145.602341,56.838924 143.370682,58.773590 141.045761,59.997993 
	C142.315750,62.080502 143.314362,64.413879 144.937592,66.169838 
	C146.354996,67.703133 148.586395,68.446732 150.267319,69.779877 
	C158.943375,76.660843 158.434189,88.761078 148.875885,94.382881 
	C139.769135,99.739090 130.281525,99.218369 120.627663,94.659096 
	C121.820213,91.254333 122.899323,88.173431 123.935890,85.214005 
	C130.217819,85.954956 136.422073,91.666985 141.860840,83.740341 
z"/>
<path fill="#030303" opacity="1.000000" stroke="none" 
	d="
M329.567627,79.567795 
	C328.329803,85.627045 327.237183,91.284332 326.153961,96.892975 
	C321.171906,96.892975 316.705658,96.892975 312.118164,96.892975 
	C315.072968,81.563370 318.136841,66.443497 320.798828,51.253201 
	C321.385437,47.905895 322.402985,46.642956 325.786652,46.938759 
	C328.921967,47.212845 332.100067,46.997189 335.790497,46.997189 
	C333.730865,57.898659 331.721863,68.532234 329.567627,79.567795 
z"/>
<path fill="#050505" opacity="1.000000" stroke="none" 
	d="
M335.290100,39.495461 
	C331.554077,41.449734 327.664154,41.811779 325.627991,38.483311 
	C324.267395,36.259193 324.276917,32.440697 325.128601,29.806150 
	C326.256165,26.318203 329.908447,25.001982 333.337311,26.083588 
	C335.374481,26.726202 338.326935,28.955662 338.353149,30.513939 
	C338.401794,33.408195 336.609802,36.333393 335.290100,39.495461 
z"/>
<path fill="#FCFDFB" opacity="1.000000" stroke="none" 
	d="
M33.076942,85.836624 
	C39.230099,84.204742 40.369648,80.258736 36.194603,76.197906 
	C35.007900,75.043671 33.608677,74.102180 32.275356,73.105331 
	C22.191071,65.565857 21.197252,53.084335 30.295023,44.312519 
	C37.491188,37.374184 46.204693,36.168617 56.137207,38.453526 
	C54.871124,43.146469 53.719479,47.415249 52.725025,51.101357 
	C48.586021,51.363960 44.865871,51.380390 41.228073,51.936028 
	C39.717312,52.166782 37.470806,53.322041 37.186722,54.462399 
	C36.786163,56.070324 37.336773,58.620430 38.482910,59.757652 
	C40.685303,61.942921 43.650967,63.337814 46.195156,65.203560 
	C54.897041,71.584976 56.570835,83.631393 50.077679,91.675919 
	C42.650688,100.877373 29.096794,98.510857 22.077394,93.105431 
	C21.273867,92.486656 20.849289,90.789635 20.972261,89.672150 
	C21.254915,87.103523 21.983601,84.583977 22.541803,81.995605 
	C26.260796,83.385460 29.475775,84.586952 33.076942,85.836624 
z"/>
<path fill="#FAFCF8" opacity="1.000000" stroke="none" 
	d="
M32.088547,19.165817 
	C34.360931,15.676470 36.243950,12.312328 38.713860,9.455613 
	C41.605312,6.111340 45.279354,3.984430 50.663353,5.426633 
	C44.710884,10.128074 41.856503,16.181992 39.277744,22.753723 
	C38.257549,25.353596 33.375732,26.438160 30.252188,28.212673 
	C29.895008,27.851067 29.537827,27.489462 29.180647,27.127855 
	C30.106693,24.590395 31.032742,22.052935 32.088547,19.165817 
z"/>
<path fill="#FAFCF8" opacity="1.000000" stroke="none" 
	d="
M55.112694,15.981199 
	C54.227062,17.858330 53.636726,19.943235 52.320992,20.621994 
	C49.913303,21.864065 47.076939,22.275177 43.634186,23.256655 
	C45.090561,16.720171 47.751022,12.042816 53.705467,8.382875 
	C54.249008,11.217161 54.664936,13.386004 55.112694,15.981199 
z"/>
<path fill="#FCFCFB" opacity="1.000000" stroke="none" 
	d="
M63.071800,12.917960 
	C63.686069,14.301861 64.144669,15.355586 64.765175,16.781353 
	C62.941601,17.310347 61.285034,17.790894 59.407360,18.335583 
	C58.935890,15.042459 58.526424,12.182410 57.884758,7.700493 
	C60.275379,10.022655 61.595753,11.305219 63.071800,12.917960 
z"/>
<path fill="#F8F8F8" opacity="1.000000" stroke="none" 
	d="
M279.866394,71.909653 
	C281.939026,67.585419 283.233704,63.074104 286.027679,59.870274 
	C289.952789,55.369350 296.031372,57.336830 296.608032,63.177876 
	C297.440460,71.609634 294.997253,79.368576 288.801758,85.405365 
	C285.389862,88.729836 282.291595,88.462753 277.340424,85.310722 
	C278.132599,81.048721 278.945099,76.677399 279.866394,71.909653 
z"/>
<path fill="#F9F9F9" opacity="1.000000" stroke="none" 
	d="
M234.107056,58.876408 
	C240.915695,54.943363 246.249069,57.402454 245.783356,64.590469 
	C245.408127,70.381897 243.694000,76.226898 241.686752,81.724213 
	C240.288483,85.553741 237.017136,88.453659 232.261948,87.067192 
	C227.769714,85.757378 227.018494,81.859482 227.140488,77.904488 
	C227.354340,70.972679 229.120026,64.505814 234.107056,58.876408 
z"/>
</svg>