<svg xmlns="http://www.w3.org/2000/svg" viewBox="0 0 456 110" xml:space="preserve"><path fill="#FDFEFE" d="M308 111H1V1h456v110H308m112.407-33.698c-6.33 8.784-15.855 9.802-25.23 9.007-9.55-.81-17.42-12.01-16.24-22.285 22.056.001 44.112.024 66.169-.04 1.633-.005 3.264-.64 5.248-1.724 1.903-9.636 1.86-19.223-1.358-28.57-4.767-13.843-14.6-22.508-28.603-26.078-4.409-1.124-9.292-.838-13.918-.55-6.006.372-12.332.36-17.897 2.3-36.364 12.675-40.27 58.795-26.872 78.117 10.191 14.697 24.632 19.742 41.616 18.438 19.144-1.47 34.477-9.316 42.265-28.762-8.17.022-16.341.043-25.18.147m-221.24-65.046c-.084-.749-.168-1.497-.283-3.1-7.346-.181-14.693-.361-22.613-.313-.095.386-.19.772-.67 1.756l-28.63 66.86-7.36-68.996h-22.364l12.907 95.42h24.547l27.645-64.488.823.159 8.137 64.26h25.442l40.759-95.687c-6.636 0-12.445.19-18.234-.076-3.19-.147-4.56.973-5.733 3.938-7.018 17.733-14.285 35.367-21.496 53.023-1.503 3.681-3.119 7.316-4.683 10.972-1.784-7.164-2.54-14.032-3.344-20.894-1.643-14.03-3.311-28.057-4.85-42.834M17.28 48.783 6.43 58.997c15.231 0 29.31.02 43.388-.055.78-.004 1.95-.613 2.267-1.266 1.46-3.015 2.683-6.145 4.31-9.988H33.138l14.63-13.941-8.041-14.374h38.88l-35.918 84.628c3.02 0 5.207-.218 7.333.046 4.376.545 6.504-.896 8.337-5.346C68.53 74.009 79.25 49.544 89.74 24.985c2.305-5.396 4.45-10.86 6.722-16.427H18.47l14.44 24.729c-.238.495-.275.68-.386.789-4.911 4.74-9.829 9.474-15.244 14.707m293.676-.334c-1.203 5.672-2.206 11.395-3.647 17.006-3.167 12.326-5.25 13.942-17.842 14.45l-4.495 23.892c2.004.143 3.647.273 5.291.374 20.268 1.249 31.612-5.82 37.543-26.506 2.823-9.846 4.206-20.096 6.688-30.052 2.994-12.01 5.328-13.773 17.797-14.983 1.25-6.738 2.713-13.55 3.595-20.437.152-1.183-2.191-3.846-3.356-3.83-4.52.058-9.015 1.133-13.546 1.446-12.315.851-18.817 8.756-22.826 19.155-2.307 5.984-3.473 12.407-5.202 19.485m-50.95 1.164L250.143 104c6.675 0 12.838-.193 18.98.077 3.404.15 4.426-1.086 4.996-4.345 3.404-19.464 7.106-38.875 10.653-58.314 1.993-10.92 3.882-21.86 5.906-33.293-6.497 0-12.478.18-18.44-.07-3.441-.144-4.842.705-5.438 4.454-1.926 12.132-4.416 24.174-6.794 37.104z"/><path fill="#2F446A" d="M176.844 8.614c7.347.18 14.694.36 21.83 1.173-.015 1.494.18 2.355.374 3.217 1.658 14.029 3.326 28.056 4.97 42.086.803 6.862 1.559 13.73 3.343 20.894 1.564-3.656 3.18-7.29 4.683-10.972 7.21-17.656 14.478-35.29 21.496-53.023 1.173-2.965 2.542-4.085 5.733-3.938 5.789.267 11.598.076 18.234.076l-40.76 95.688h-25.441l-8.137-64.261-.823-.16-27.645 64.49h-24.547L117.247 8.462h22.364l7.36 68.996c9.925-23.18 19.278-45.02 29.052-67.33.555-.819.688-1.167.821-1.515z"/><path fill="#2E4369" d="M445.858 77.976c-8.06 18.625-23.392 26.472-42.536 27.941-16.984 1.304-31.425-3.741-41.616-18.438-13.398-19.322-9.492-65.442 26.872-78.116 5.565-1.94 11.89-1.929 17.897-2.302 4.626-.287 9.509-.573 13.918.55 14.004 3.57 23.836 12.236 28.603 26.08 3.218 9.346 3.26 18.933.714 28.935-22.442.368-44.238.346-66.035.416-1.893.006-3.784.617-5.676.947-.242 10.31 7.629 21.51 17.177 22.32 9.376.795 18.9-.223 25.884-8.794 8.701.296 16.75.379 24.798.461m-17.391-31.5c.106-11.839-8.352-20.62-20.42-21.198-13.41-.643-27.408 10.18-27.477 22.301 15.246.123 30.491.255 45.737.328.56.003 1.122-.578 2.16-1.431z"/><path fill="#03B9FF" d="M17.53 48.534c5.165-4.984 10.083-9.718 14.994-14.458.111-.108.148-.294.385-.79L18.47 8.559h77.992c-2.273 5.567-4.417 11.031-6.722 16.427C79.248 49.545 68.53 74.009 58.36 98.7c-1.834 4.45-3.962 5.89-8.338 5.346-2.126-.264-4.312-.046-7.333-.046l35.918-84.628h-38.88l8.041 14.374-14.63 13.94h23.256c-1.627 3.844-2.85 6.974-4.31 9.989-.317.653-1.487 1.262-2.267 1.266-14.078.076-28.157.055-43.388.055 4.184-3.938 7.518-7.076 11.1-10.463z"/><path fill="#2F446A" d="M310.98 48.023c1.705-6.652 2.871-13.075 5.178-19.059 4.01-10.4 10.511-18.304 22.826-19.155 4.53-.313 9.026-1.388 13.546-1.447 1.165-.015 3.508 2.648 3.356 3.83-.882 6.888-2.346 13.7-3.595 20.438-12.47 1.21-14.803 2.973-17.797 14.983-2.482 9.956-3.865 20.206-6.688 30.052-5.93 20.686-17.275 27.755-37.543 26.506-1.644-.1-3.287-.231-5.291-.374l4.495-23.891c12.592-.509 14.675-2.125 17.842-14.451 1.441-5.61 2.444-11.334 3.671-17.432z"/><path fill="#30456A" d="M260.059 49.186c2.325-12.503 4.815-24.545 6.741-36.677.596-3.749 1.997-4.598 5.438-4.453 5.962.25 11.943.069 18.44.069-2.024 11.432-3.913 22.372-5.906 33.293-3.547 19.439-7.249 38.85-10.653 58.314-.57 3.259-1.592 4.494-4.996 4.345-6.142-.27-12.305-.077-18.98-.077 3.325-18.334 6.594-36.36 9.916-54.814z"/><path fill="#0C2D5C" d="M378.468 64.006c1.423-.347 3.314-.958 5.207-.964 21.797-.07 43.593-.048 65.859-.046-1.164.347-2.795.983-4.428.987-22.057.065-44.113.042-66.638.023zM445.723 77.566c-7.913.328-15.962.245-24.33-.092 7.853-.276 16.023-.297 24.33.092z"/><path fill="#3A4E72" d="M199.108 12.63c-.255-.488-.45-1.35-.419-2.415.31.544.394 1.292.419 2.415zM176.558 8.729c.153.233.02.581-.342 1.1-.134-.214-.04-.6.342-1.1z"/><path fill="#FAFBFB" d="M380.01 46.955c.63-11.497 14.627-22.32 28.038-21.677 12.067.578 20.525 9.36 19.714 21.425-16.386.236-32.069.244-47.751.252z"/><path fill="#0C2D5C" d="M380.29 47.267c15.403-.32 31.086-.328 47.234-.292-.095.354-.657.935-1.217.932-15.246-.073-30.491-.205-46.017-.64z"/></svg>